<?xml version="1.0" encoding="UTF-8" standalone="no"?>
<!-- Created with Inkscape (http://www.inkscape.org/) -->

<svg
   xmlns:dc="http://purl.org/dc/elements/1.1/"
   xmlns:cc="http://creativecommons.org/ns#"
   xmlns:rdf="http://www.w3.org/1999/02/22-rdf-syntax-ns#"
   xmlns:svg="http://www.w3.org/2000/svg"
   xmlns="http://www.w3.org/2000/svg"
   xmlns:sodipodi="http://sodipodi.sourceforge.net/DTD/sodipodi-0.dtd"
   xmlns:inkscape="http://www.inkscape.org/namespaces/inkscape"
   id="svg3336"
   version="1.1"
   inkscape:version="0.91 r13725"
   xml:space="preserve"
   width="1200"
   height="675"
   viewBox="0 0 1200 675"
   sodipodi:docname="messages1.svg"><metadata
     id="metadata3342"><rdf:RDF><cc:Work
         rdf:about=""><dc:format>image/svg+xml</dc:format><dc:type
           rdf:resource="http://purl.org/dc/dcmitype/StillImage" /><dc:title></dc:title></cc:Work></rdf:RDF></metadata><defs
     id="defs3340"><clipPath
       clipPathUnits="userSpaceOnUse"
       id="clipPath3350"><path
         d="m 0,1.2207e-4 960,0 0,539.99999793 -960,0 L 0,1.2207e-4 Z"
         id="path3352"
         inkscape:connector-curvature="0"
         style="clip-rule:evenodd" /></clipPath><clipPath
       clipPathUnits="userSpaceOnUse"
       id="clipPath3362"><path
         d="M 1.4305e-5,0 960.00001,0 l 0,540 -959.999995695,0 0,-540 z"
         id="path3364"
         inkscape:connector-curvature="0"
         style="clip-rule:evenodd" /></clipPath><clipPath
       clipPathUnits="userSpaceOnUse"
       id="clipPath3374"><path
         d="M 1.4305e-5,0 960.00001,0 l 0,540 -959.999995695,0 0,-540 z"
         id="path3376"
         inkscape:connector-curvature="0"
         style="clip-rule:evenodd" /></clipPath><clipPath
       clipPathUnits="userSpaceOnUse"
       id="clipPath3386"><path
         d="M 1.4305e-5,0 960.00001,0 l 0,540 -959.999995695,0 0,-540 z"
         id="path3388"
         inkscape:connector-curvature="0"
         style="clip-rule:evenodd" /></clipPath><clipPath
       clipPathUnits="userSpaceOnUse"
       id="clipPath3398"><path
         d="M 1.4305e-5,0 960.00001,0 l 0,540 -959.999995695,0 0,-540 z"
         id="path3400"
         inkscape:connector-curvature="0"
         style="clip-rule:evenodd" /></clipPath><clipPath
       clipPathUnits="userSpaceOnUse"
       id="clipPath3410"><path
         d="M 1.4305e-5,0 960.00001,0 l 0,540 -959.999995695,0 0,-540 z"
         id="path3412"
         inkscape:connector-curvature="0"
         style="clip-rule:evenodd" /></clipPath><clipPath
       clipPathUnits="userSpaceOnUse"
       id="clipPath3422"><path
         d="M 1.4305e-5,0 960.00001,0 l 0,540 -959.999995695,0 0,-540 z"
         id="path3424"
         inkscape:connector-curvature="0"
         style="clip-rule:evenodd" /></clipPath><clipPath
       clipPathUnits="userSpaceOnUse"
       id="clipPath3434"><path
         d="M 1.4305e-5,0 960.00001,0 l 0,540 -959.999995695,0 0,-540 z"
         id="path3436"
         inkscape:connector-curvature="0"
         style="clip-rule:evenodd" /></clipPath><clipPath
       clipPathUnits="userSpaceOnUse"
       id="clipPath3446"><path
         d="M 1.4305e-5,0 960.00001,0 l 0,540 -959.999995695,0 0,-540 z"
         id="path3448"
         inkscape:connector-curvature="0"
         style="clip-rule:evenodd" /></clipPath><clipPath
       clipPathUnits="userSpaceOnUse"
       id="clipPath3458"><path
         d="M 1.4305e-5,0 960.00001,0 l 0,540 -959.999995695,0 0,-540 z"
         id="path3460"
         inkscape:connector-curvature="0"
         style="clip-rule:evenodd" /></clipPath><clipPath
       clipPathUnits="userSpaceOnUse"
       id="clipPath3470"><path
         d="M 1.4305e-5,0 960.00001,0 l 0,540 -959.999995695,0 0,-540 z"
         id="path3472"
         inkscape:connector-curvature="0"
         style="clip-rule:evenodd" /></clipPath><clipPath
       clipPathUnits="userSpaceOnUse"
       id="clipPath3484"><path
         d="M 1.4305e-5,0 960.00001,0 l 0,540 -959.999995695,0 0,-540 z"
         id="path3486"
         inkscape:connector-curvature="0"
         style="clip-rule:evenodd" /></clipPath><clipPath
       clipPathUnits="userSpaceOnUse"
       id="clipPath3496"><path
         d="M 1.4305e-5,0 960.00001,0 l 0,540 -959.999995695,0 0,-540 z"
         id="path3498"
         inkscape:connector-curvature="0"
         style="clip-rule:evenodd" /></clipPath><clipPath
       clipPathUnits="userSpaceOnUse"
       id="clipPath3508"><path
         d="M 1.4305e-5,0 960.00001,0 l 0,540 -959.999995695,0 0,-540 z"
         id="path3510"
         inkscape:connector-curvature="0"
         style="clip-rule:evenodd" /></clipPath><clipPath
       clipPathUnits="userSpaceOnUse"
       id="clipPath3520"><path
         d="M 1.4305e-5,0 960.00001,0 l 0,540 -959.999995695,0 0,-540 z"
         id="path3522"
         inkscape:connector-curvature="0"
         style="clip-rule:evenodd" /></clipPath><clipPath
       clipPathUnits="userSpaceOnUse"
       id="clipPath3532"><path
         d="M 1.4305e-5,0 960.00001,0 l 0,540 -959.999995695,0 0,-540 z"
         id="path3534"
         inkscape:connector-curvature="0"
         style="clip-rule:evenodd" /></clipPath><clipPath
       clipPathUnits="userSpaceOnUse"
       id="clipPath3544"><path
         d="M 1.4305e-5,0 960.00001,0 l 0,540 -959.999995695,0 0,-540 z"
         id="path3546"
         inkscape:connector-curvature="0"
         style="clip-rule:evenodd" /></clipPath><clipPath
       clipPathUnits="userSpaceOnUse"
       id="clipPath3556"><path
         d="M 1.4305e-5,0 960.00001,0 l 0,540 -959.999995695,0 0,-540 z"
         id="path3558"
         inkscape:connector-curvature="0"
         style="clip-rule:evenodd" /></clipPath><clipPath
       clipPathUnits="userSpaceOnUse"
       id="clipPath3568"><path
         d="M 1.4305e-5,0 960.00001,0 l 0,540 -959.999995695,0 0,-540 z"
         id="path3570"
         inkscape:connector-curvature="0"
         style="clip-rule:evenodd" /></clipPath><clipPath
       clipPathUnits="userSpaceOnUse"
       id="clipPath3580"><path
         d="M 1.4305e-5,0 960.00001,0 l 0,540 -959.999995695,0 0,-540 z"
         id="path3582"
         inkscape:connector-curvature="0"
         style="clip-rule:evenodd" /></clipPath><clipPath
       clipPathUnits="userSpaceOnUse"
       id="clipPath3592"><path
         d="M 1.4305e-5,0 960.00001,0 l 0,540 -959.999995695,0 0,-540 z"
         id="path3594"
         inkscape:connector-curvature="0"
         style="clip-rule:evenodd" /></clipPath><clipPath
       clipPathUnits="userSpaceOnUse"
       id="clipPath3604"><path
         d="M 1.4305e-5,0 960.00001,0 l 0,540 -959.999995695,0 0,-540 z"
         id="path3606"
         inkscape:connector-curvature="0"
         style="clip-rule:evenodd" /></clipPath><clipPath
       clipPathUnits="userSpaceOnUse"
       id="clipPath3616"><path
         d="M 1.4305e-5,0 960.00001,0 l 0,540 -959.999995695,0 0,-540 z"
         id="path3618"
         inkscape:connector-curvature="0"
         style="clip-rule:evenodd" /></clipPath><clipPath
       clipPathUnits="userSpaceOnUse"
       id="clipPath3628"><path
         d="M 1.4305e-5,0 960.00001,0 l 0,540 -959.999995695,0 0,-540 z"
         id="path3630"
         inkscape:connector-curvature="0"
         style="clip-rule:evenodd" /></clipPath><clipPath
       clipPathUnits="userSpaceOnUse"
       id="clipPath3640"><path
         d="M 1.4305e-5,0 960.00001,0 l 0,540 -959.999995695,0 0,-540 z"
         id="path3642"
         inkscape:connector-curvature="0"
         style="clip-rule:evenodd" /></clipPath><clipPath
       clipPathUnits="userSpaceOnUse"
       id="clipPath3652"><path
         d="M 1.4305e-5,0 960.00001,0 l 0,540 -959.999995695,0 0,-540 z"
         id="path3654"
         inkscape:connector-curvature="0"
         style="clip-rule:evenodd" /></clipPath><clipPath
       clipPathUnits="userSpaceOnUse"
       id="clipPath3664"><path
         d="M 1.4305e-5,0 960.00001,0 l 0,540 -959.999995695,0 0,-540 z"
         id="path3666"
         inkscape:connector-curvature="0"
         style="clip-rule:evenodd" /></clipPath><clipPath
       clipPathUnits="userSpaceOnUse"
       id="clipPath3676"><path
         d="M 1.4305e-5,0 960.00001,0 l 0,540 -959.999995695,0 0,-540 z"
         id="path3678"
         inkscape:connector-curvature="0"
         style="clip-rule:evenodd" /></clipPath><clipPath
       clipPathUnits="userSpaceOnUse"
       id="clipPath3692"><path
         d="M 1.4305e-5,0 960.00001,0 l 0,540 -959.999995695,0 0,-540 z"
         id="path3694"
         inkscape:connector-curvature="0"
         style="clip-rule:evenodd" /></clipPath><clipPath
       clipPathUnits="userSpaceOnUse"
       id="clipPath3704"><path
         d="M 1.4305e-5,0 960.00001,0 l 0,540 -959.999995695,0 0,-540 z"
         id="path3706"
         inkscape:connector-curvature="0"
         style="clip-rule:evenodd" /></clipPath><clipPath
       clipPathUnits="userSpaceOnUse"
       id="clipPath3716"><path
         d="M 1.4305e-5,0 960.00001,0 l 0,540 -959.999995695,0 0,-540 z"
         id="path3718"
         inkscape:connector-curvature="0"
         style="clip-rule:evenodd" /></clipPath><clipPath
       clipPathUnits="userSpaceOnUse"
       id="clipPath3728"><path
         d="M 1.4305e-5,0 960.00001,0 l 0,540 -959.999995695,0 0,-540 z"
         id="path3730"
         inkscape:connector-curvature="0"
         style="clip-rule:evenodd" /></clipPath><clipPath
       clipPathUnits="userSpaceOnUse"
       id="clipPath3742"><path
         d="M 1.4305e-5,0 960.00001,0 l 0,540 -959.999995695,0 0,-540 z"
         id="path3744"
         inkscape:connector-curvature="0"
         style="clip-rule:evenodd" /></clipPath><clipPath
       clipPathUnits="userSpaceOnUse"
       id="clipPath3754"><path
         d="M 1.4305e-5,0 960.00001,0 l 0,540 -959.999995695,0 0,-540 z"
         id="path3756"
         inkscape:connector-curvature="0"
         style="clip-rule:evenodd" /></clipPath><clipPath
       clipPathUnits="userSpaceOnUse"
       id="clipPath3766"><path
         d="M 1.4305e-5,0 960.00001,0 l 0,540 -959.999995695,0 0,-540 z"
         id="path3768"
         inkscape:connector-curvature="0"
         style="clip-rule:evenodd" /></clipPath><clipPath
       clipPathUnits="userSpaceOnUse"
       id="clipPath3778"><path
         d="M 1.4305e-5,0 960.00001,0 l 0,540 -959.999995695,0 0,-540 z"
         id="path3780"
         inkscape:connector-curvature="0"
         style="clip-rule:evenodd" /></clipPath><clipPath
       clipPathUnits="userSpaceOnUse"
       id="clipPath3790"><path
         d="M 1.4305e-5,0 960.00001,0 l 0,540 -959.999995695,0 0,-540 z"
         id="path3792"
         inkscape:connector-curvature="0"
         style="clip-rule:evenodd" /></clipPath><clipPath
       clipPathUnits="userSpaceOnUse"
       id="clipPath3802"><path
         d="M 1.4305e-5,0 960.00001,0 l 0,540 -959.999995695,0 0,-540 z"
         id="path3804"
         inkscape:connector-curvature="0"
         style="clip-rule:evenodd" /></clipPath><clipPath
       clipPathUnits="userSpaceOnUse"
       id="clipPath3814"><path
         d="M 1.4305e-5,0 960.00001,0 l 0,540 -959.999995695,0 0,-540 z"
         id="path3816"
         inkscape:connector-curvature="0"
         style="clip-rule:evenodd" /></clipPath><clipPath
       clipPathUnits="userSpaceOnUse"
       id="clipPath3826"><path
         d="M 1.4305e-5,0 960.00001,0 l 0,540 -959.999995695,0 0,-540 z"
         id="path3828"
         inkscape:connector-curvature="0"
         style="clip-rule:evenodd" /></clipPath><clipPath
       clipPathUnits="userSpaceOnUse"
       id="clipPath3838"><path
         d="M 1.4305e-5,0 960.00001,0 l 0,540 -959.999995695,0 0,-540 z"
         id="path3840"
         inkscape:connector-curvature="0"
         style="clip-rule:evenodd" /></clipPath><clipPath
       clipPathUnits="userSpaceOnUse"
       id="clipPath3858"><path
         d="M 1.4305e-5,0 960.00001,0 l 0,540 -959.999995695,0 0,-540 z"
         id="path3860"
         inkscape:connector-curvature="0"
         style="clip-rule:evenodd" /></clipPath><clipPath
       clipPathUnits="userSpaceOnUse"
       id="clipPath3874"><path
         d="M 1.4305e-5,0 960.00001,0 l 0,540 -959.999995695,0 0,-540 z"
         id="path3876"
         inkscape:connector-curvature="0"
         style="clip-rule:evenodd" /></clipPath><clipPath
       clipPathUnits="userSpaceOnUse"
       id="clipPath3890"><path
         d="M 1.4305e-5,0 960.00001,0 l 0,540 -959.999995695,0 0,-540 z"
         id="path3892"
         inkscape:connector-curvature="0"
         style="clip-rule:evenodd" /></clipPath><clipPath
       clipPathUnits="userSpaceOnUse"
       id="clipPath3906"><path
         d="M 1.4305e-5,0 960.00001,0 l 0,540 -959.999995695,0 0,-540 z"
         id="path3908"
         inkscape:connector-curvature="0"
         style="clip-rule:evenodd" /></clipPath></defs><sodipodi:namedview
     pagecolor="#ffffff"
     bordercolor="#666666"
     borderopacity="1"
     objecttolerance="10"
     gridtolerance="10"
     guidetolerance="10"
     inkscape:pageopacity="0"
     inkscape:pageshadow="2"
     inkscape:window-width="1920"
     inkscape:window-height="1028"
     id="namedview3338"
     showgrid="false"
     inkscape:zoom="1.2725926"
     inkscape:cx="600"
     inkscape:cy="337.5"
     inkscape:window-x="1912"
     inkscape:window-y="-8"
     inkscape:window-maximized="1"
     inkscape:current-layer="g3344" /><g
     id="g3344"
     inkscape:groupmode="layer"
     inkscape:label="messages"
     transform="matrix(1.25,0,0,-1.25,0,675)"><g
       id="g3346"><g
         id="g3348"
         clip-path="url(#clipPath3350)"><path
           d="m 0,6.1035e-5 960,0 0,539.999998965 -960,0 L 0,6.1035e-5 Z"
           style="fill:#ffffff;fill-opacity:1;fill-rule:evenodd;stroke:none"
           id="path3354"
           inkscape:connector-curvature="0" /></g></g><path
       d="m 11.64,312.96 289.32,0 0,158.76 -289.32,0 0,-158.76 z"
       style="fill:#e7e6e6;fill-opacity:1;fill-rule:evenodd;stroke:none"
       id="path3356"
       inkscape:connector-curvature="0" /><g
       id="g3358"><g
         id="g3360"
         clip-path="url(#clipPath3362)"><text
           transform="matrix(1,0,0,-1,18.888,440.3)"
           style="font-variant:normal;font-weight:300;font-size:18px;font-family:Calibri;-inkscape-font-specification:Calibri-Light;writing-mode:lr-tb;fill:#000000;fill-opacity:1;fill-rule:nonzero;stroke:none"
           id="text3366"><tspan
             x="0 6.9660001 16.326 20.304001 29.285999 37.223999 48.599998"
             y="0"
             sodipodi:role="line"
             id="tspan3368">shinyUI</tspan></text>
</g></g><g
       id="g3370"><g
         id="g3372"
         clip-path="url(#clipPath3374)"><text
           transform="matrix(1,0,0,-1,71.928,440.3)"
           style="font-variant:normal;font-weight:300;font-size:18px;font-family:Calibri;-inkscape-font-specification:Calibri-Light;writing-mode:lr-tb;fill:#000000;fill-opacity:1;fill-rule:nonzero;stroke:none"
           id="text3378"><tspan
             x="0"
             y="0"
             id="tspan3380">(</tspan></text>
</g></g><g
       id="g3382"><g
         id="g3384"
         clip-path="url(#clipPath3386)"><text
           transform="matrix(1,0,0,-1,27.168,418.7)"
           style="font-variant:normal;font-weight:300;font-size:18px;font-family:Calibri;-inkscape-font-specification:Calibri-Light;writing-mode:lr-tb;fill:#000000;fill-opacity:1;fill-rule:nonzero;stroke:none"
           id="text3390"><tspan
             x="0 9.3599997 18.738001 28.115999 33.966 40.68 46.602001 52.433998 60.911999 70.272003 79.073997 87.552002 95.867996"
             y="0"
             sodipodi:role="line"
             id="tspan3392">bootstrapPage</tspan></text>
</g></g><g
       id="g3394"><g
         id="g3396"
         clip-path="url(#clipPath3398)"><text
           transform="matrix(1,0,0,-1,131.93,418.7)"
           style="font-variant:normal;font-weight:300;font-size:18px;font-family:Calibri;-inkscape-font-specification:Calibri-Light;writing-mode:lr-tb;fill:#000000;fill-opacity:1;fill-rule:nonzero;stroke:none"
           id="text3402"><tspan
             x="0 5.382"
             y="0"
             sodipodi:role="line"
             id="tspan3404">( </tspan></text>
</g></g><g
       id="g3406"><g
         id="g3408"
         clip-path="url(#clipPath3410)"><text
           transform="matrix(1,0,0,-1,35.328,397.1)"
           style="font-variant:normal;font-weight:300;font-size:18px;font-family:Calibri;-inkscape-font-specification:Calibri-Light;writing-mode:lr-tb;fill:#000000;fill-opacity:1;fill-rule:nonzero;stroke:none"
           id="text3414"><tspan
             x="0 3.9779999 13.338 20.988001 24.966 34.326 43.686001 52.577999 60.731998 68.382004 74.592003 78.57 87.839996"
             y="0"
             sodipodi:role="line"
             id="tspan3416">includeScript</tspan></text>
</g></g><g
       id="g3418"><g
         id="g3420"
         clip-path="url(#clipPath3422)"><text
           transform="matrix(1,0,0,-1,129.05,397.1)"
           style="font-variant:normal;font-weight:300;font-size:18px;font-family:Calibri;-inkscape-font-specification:Calibri-Light;writing-mode:lr-tb;fill:#000000;fill-opacity:1;fill-rule:nonzero;stroke:none"
           id="text3426"><tspan
             x="0 5.382 12.222 24.804001 37.386002 50.021999 56.537998 70.776001 79.667999 86.634003 93.599998 102.078 110.376 119.268 123.678 127.872 134.838 141.67799 147.06"
             y="0"
             sodipodi:role="line"
             id="tspan3428">(&quot;www/message.js&quot;),</tspan></text>
</g></g><g
       id="g3430"><g
         id="g3432"
         clip-path="url(#clipPath3434)"><text
           transform="matrix(1,0,0,-1,35.328,375.5)"
           style="font-variant:normal;font-weight:300;font-size:18px;font-family:Calibri;-inkscape-font-specification:Calibri-Light;writing-mode:lr-tb;fill:#000000;fill-opacity:1;fill-rule:nonzero;stroke:none"
           id="text3438"><tspan
             x="0 8.4779997 16.181999 22.104 26.028 35.405998 44.765999 54.396 63.756001 69.353996 75.113998 84.491997"
             y="0"
             sodipodi:role="line"
             id="tspan3440">actionButton</tspan></text>
</g></g><g
       id="g3442"><g
         id="g3444"
         clip-path="url(#clipPath3446)"><text
           transform="matrix(1,0,0,-1,129.17,375.5)"
           style="font-variant:normal;font-weight:300;font-size:18px;font-family:Calibri;-inkscape-font-specification:Calibri-Light;writing-mode:lr-tb;fill:#000000;fill-opacity:1;fill-rule:nonzero;stroke:none"
           id="text3450"><tspan
             x="0 5.382 12.222 21.474001 27.396 36.756001 45.882 52.722 57.132 63.972 70.938004 80.297997 89.514 102.096 106.416 114.894 118.872 127.764 133.974 139.896 146.73599"
             y="0"
             sodipodi:role="line"
             id="tspan3452">(&quot;btn1&quot;,&quot;show alert&quot;)</tspan></text>
</g></g><g
       id="g3454"><g
         id="g3456"
         clip-path="url(#clipPath3458)"><text
           transform="matrix(1,0,0,-1,27.168,353.88)"
           style="font-variant:normal;font-weight:300;font-size:18px;font-family:Calibri;-inkscape-font-specification:Calibri-Light;writing-mode:lr-tb;fill:#000000;fill-opacity:1;fill-rule:nonzero;stroke:none"
           id="text3462"><tspan
             x="0"
             y="0"
             id="tspan3464">)</tspan></text>
</g></g><g
       id="g3466"><g
         id="g3468"
         clip-path="url(#clipPath3470)"><text
           transform="matrix(1,0,0,-1,18.888,332.28)"
           style="font-variant:normal;font-weight:300;font-size:18px;font-family:Calibri;-inkscape-font-specification:Calibri-Light;writing-mode:lr-tb;fill:#000000;fill-opacity:1;fill-rule:nonzero;stroke:none"
           id="text3474"><tspan
             x="0"
             y="0"
             id="tspan3476">)</tspan></text>
</g></g><path
       d="m 316.2,312.96 532.8,0 0,158.76 -532.8,0 0,-158.76 z"
       style="fill:#e7e6e6;fill-opacity:1;fill-rule:evenodd;stroke:none"
       id="path3478"
       inkscape:connector-curvature="0" /><g
       id="g3480"><g
         id="g3482"
         clip-path="url(#clipPath3484)"><text
           transform="matrix(1,0,0,-1,323.47,440.3)"
           style="font-variant:normal;font-weight:300;font-size:18px;font-family:Calibri;-inkscape-font-specification:Calibri-Light;writing-mode:lr-tb;fill:#000000;fill-opacity:1;fill-rule:nonzero;stroke:none"
           id="text3488"><tspan
             x="0 6.9660001 16.326 20.304001 29.285999 37.223999 45.377998 54.27 60.588001 68.382004 77.274002"
             y="0"
             sodipodi:role="line"
             id="tspan3490">shinyServer</tspan></text>
</g></g><g
       id="g3492"><g
         id="g3494"
         clip-path="url(#clipPath3496)"><text
           transform="matrix(1,0,0,-1,406.99,440.3)"
           style="font-variant:normal;font-weight:300;font-size:18px;font-family:Calibri;-inkscape-font-specification:Calibri-Light;writing-mode:lr-tb;fill:#000000;fill-opacity:1;fill-rule:nonzero;stroke:none"
           id="text3500"><tspan
             x="0"
             y="0"
             id="tspan3502">(</tspan></text>
</g></g><g
       id="g3504"><g
         id="g3506"
         clip-path="url(#clipPath3508)"><text
           transform="matrix(1,0,0,-1,412.39,440.3)"
           style="font-variant:normal;font-weight:300;font-size:18px;font-family:Calibri;-inkscape-font-specification:Calibri-Light;writing-mode:lr-tb;fill:#000000;fill-opacity:1;fill-rule:nonzero;stroke:none"
           id="text3512"><tspan
             x="0 5.382 14.742 24.101999 31.752001 37.674 41.652 51.029999"
             y="0"
             sodipodi:role="line"
             id="tspan3514">function</tspan></text>
</g></g><g
       id="g3516"><g
         id="g3518"
         clip-path="url(#clipPath3520)"><text
           transform="matrix(1,0,0,-1,472.75,440.3)"
           style="font-variant:normal;font-weight:300;font-size:18px;font-family:Calibri;-inkscape-font-specification:Calibri-Light;writing-mode:lr-tb;fill:#000000;fill-opacity:1;fill-rule:nonzero;stroke:none"
           id="text3524"><tspan
             x="0"
             y="0"
             id="tspan3526">(</tspan></text>
</g></g><g
       id="g3528"><g
         id="g3530"
         clip-path="url(#clipPath3532)"><text
           transform="matrix(1,0,0,-1,478.15,440.3)"
           style="font-variant:normal;font-weight:300;font-size:18px;font-family:Calibri;-inkscape-font-specification:Calibri-Light;writing-mode:lr-tb;fill:#000000;fill-opacity:1;fill-rule:nonzero;stroke:none"
           id="text3536"><tspan
             x="0 3.9779999 13.338 22.698 32.057999 37.925999 42.335999 51.714001 61.074001 66.996002 76.356003 85.716003 91.566002 95.975998 102.942 111.834 118.8 125.766 129.744 139.12199"
             y="0"
             sodipodi:role="line"
             id="tspan3538">input,output,session</tspan></text>
</g></g><g
       id="g3540"><g
         id="g3542"
         clip-path="url(#clipPath3544)"><text
           transform="matrix(1,0,0,-1,626.62,440.3)"
           style="font-variant:normal;font-weight:300;font-size:18px;font-family:Calibri;-inkscape-font-specification:Calibri-Light;writing-mode:lr-tb;fill:#000000;fill-opacity:1;fill-rule:nonzero;stroke:none"
           id="text3548"><tspan
             x="0 5.4000001"
             y="0"
             sodipodi:role="line"
             id="tspan3550">){</tspan></text>
</g></g><g
       id="g3552"><g
         id="g3554"
         clip-path="url(#clipPath3556)"><text
           transform="matrix(1,0,0,-1,331.75,418.7)"
           style="font-variant:normal;font-weight:300;font-size:18px;font-family:Calibri;-inkscape-font-specification:Calibri-Light;writing-mode:lr-tb;fill:#000000;fill-opacity:1;fill-rule:nonzero;stroke:none"
           id="text3560"><tspan
             x="0 9.3780003 18.594 25.559999 34.452 40.77 48.563999 57.456001 65.844002 73.638 82.529999 91.764"
             y="0"
             sodipodi:role="line"
             id="tspan3562">observeEvent</tspan></text>
</g></g><g
       id="g3564"><g
         id="g3566"
         clip-path="url(#clipPath3568)"><text
           transform="matrix(1,0,0,-1,429.43,418.7)"
           style="font-variant:normal;font-weight:300;font-size:18px;font-family:Calibri;-inkscape-font-specification:Calibri-Light;writing-mode:lr-tb;fill:#000000;fill-opacity:1;fill-rule:nonzero;stroke:none"
           id="text3572"><tspan
             x="0 5.382 9.3599997 18.719999 28.08 37.439999 43.362 52.487999 61.686001 67.608002 76.968002 86.094002 90.503998"
             y="0"
             sodipodi:role="line"
             id="tspan3574">(input$btn1,{</tspan></text>
</g></g><g
       id="g3576"><g
         id="g3578"
         clip-path="url(#clipPath3580)"><text
           transform="matrix(1,0,0,-1,339.91,397.1)"
           style="font-variant:normal;font-weight:300;font-size:18px;font-family:Calibri;-inkscape-font-specification:Calibri-Light;writing-mode:lr-tb;fill:#000000;fill-opacity:1;fill-rule:nonzero;stroke:none"
           id="text3584"><tspan
             x="0 14.238 23.129999 30.096001 37.062 45.576 53.855999 62.748001 71.874001"
             y="0"
             sodipodi:role="line"
             id="tspan3586">message1 </tspan></text>
</g></g><g
       id="g3588"><g
         id="g3590"
         clip-path="url(#clipPath3592)"><text
           transform="matrix(1,0,0,-1,416.11,397.1)"
           style="font-variant:normal;font-weight:300;font-size:18px;font-family:Calibri;-inkscape-font-specification:Calibri-Light;writing-mode:lr-tb;fill:#000000;fill-opacity:1;fill-rule:nonzero;stroke:none"
           id="text3596"><tspan
             x="0 8.9639997 13.032"
             y="0"
             sodipodi:role="line"
             id="tspan3598">= &quot;</tspan></text>
</g></g><g
       id="g3600"><g
         id="g3602"
         clip-path="url(#clipPath3604)"><text
           transform="matrix(1,0,0,-1,436.03,397.1)"
           style="font-variant:normal;font-weight:300;font-size:18px;font-family:Calibri;-inkscape-font-specification:Calibri-Light;writing-mode:lr-tb;fill:#000000;fill-opacity:1;fill-rule:nonzero;stroke:none"
           id="text3608"><tspan
             x="0 9.3599997 18.252001 22.23 26.208"
             y="0"
             sodipodi:role="line"
             id="tspan3610">hello</tspan></text>
</g></g><g
       id="g3612"><g
         id="g3614"
         clip-path="url(#clipPath3616)"><text
           transform="matrix(1,0,0,-1,471.55,397.1)"
           style="font-variant:normal;font-weight:300;font-size:18px;font-family:Calibri;-inkscape-font-specification:Calibri-Light;writing-mode:lr-tb;fill:#000000;fill-opacity:1;fill-rule:nonzero;stroke:none"
           id="text3620"><tspan
             x="0"
             y="0"
             id="tspan3622">&quot;</tspan></text>
</g></g><g
       id="g3624"><g
         id="g3626"
         clip-path="url(#clipPath3628)"><text
           transform="matrix(1,0,0,-1,339.91,375.5)"
           style="font-variant:normal;font-weight:300;font-size:18px;font-family:Calibri;-inkscape-font-specification:Calibri-Light;writing-mode:lr-tb;fill:#000000;fill-opacity:1;fill-rule:nonzero;stroke:none"
           id="text3632"><tspan
             x="0 6.9660001 15.858 22.823999 29.790001 33.768002 43.074001 52.433998 61.560001 68.526001 77.417999 86.778 96.138 105.714 115.074 121.788 127.548 136.92599 151.164 166.37399 175.26601 182.23199 189.198 197.73 206.00999"
             y="0"
             sodipodi:role="line"
             id="tspan3634">session$sendCustomMessage</tspan></text>
</g></g><g
       id="g3636"><g
         id="g3638"
         clip-path="url(#clipPath3640)"><text
           transform="matrix(1,0,0,-1,554.86,375.5)"
           style="font-variant:normal;font-weight:300;font-size:18px;font-family:Calibri;-inkscape-font-specification:Calibri-Light;writing-mode:lr-tb;fill:#000000;fill-opacity:1;fill-rule:nonzero;stroke:none"
           id="text3644"><tspan
             x="0 5.382 12.222 21.582001 30.096001 39.456001 48.816002 52.793999 61.686001 67.896004 77.022003 83.862 88.272003"
             y="0"
             sodipodi:role="line"
             id="tspan3646">(&quot;handler1&quot;, </tspan></text>
</g></g><g
       id="g3648"><g
         id="g3650"
         clip-path="url(#clipPath3652)"><text
           transform="matrix(1,0,0,-1,647.86,375.5)"
           style="font-variant:normal;font-weight:300;font-size:18px;font-family:Calibri;-inkscape-font-specification:Calibri-Light;writing-mode:lr-tb;fill:#000000;fill-opacity:1;fill-rule:nonzero;stroke:none"
           id="text3656"><tspan
             x="0 14.238 23.129999 30.096001 37.062 45.576 53.855999 62.748001 71.874001"
             y="0"
             sodipodi:role="line"
             id="tspan3658">message1)</tspan></text>
</g></g><g
       id="g3660"><g
         id="g3662"
         clip-path="url(#clipPath3664)"><text
           transform="matrix(1,0,0,-1,331.75,353.88)"
           style="font-variant:normal;font-weight:300;font-size:18px;font-family:Calibri;-inkscape-font-specification:Calibri-Light;writing-mode:lr-tb;fill:#000000;fill-opacity:1;fill-rule:nonzero;stroke:none"
           id="text3668"><tspan
             x="0 5.382 10.764"
             y="0"
             sodipodi:role="line"
             id="tspan3670">}) </tspan></text>
</g></g><g
       id="g3672"><g
         id="g3674"
         clip-path="url(#clipPath3676)"><text
           transform="matrix(1,0,0,-1,323.47,332.28)"
           style="font-variant:normal;font-weight:300;font-size:18px;font-family:Calibri;-inkscape-font-specification:Calibri-Light;writing-mode:lr-tb;fill:#000000;fill-opacity:1;fill-rule:nonzero;stroke:none"
           id="text3680"><tspan
             x="0 5.4000001"
             y="0"
             sodipodi:role="line"
             id="tspan3682">})</tspan></text>
</g></g><path
       d="m 316.2,36.6 532.8,0 0,211.56 -532.8,0 0,-211.56 z"
       style="fill:#deebf7;fill-opacity:1;fill-rule:evenodd;stroke:none"
       id="path3684"
       inkscape:connector-curvature="0" /><path
       d="m 329.88,154.92 501.72,0 0,72.72 -501.72,0 0,-72.72 z"
       style="fill:#00b0f0;fill-opacity:1;fill-rule:evenodd;stroke:none"
       id="path3686"
       inkscape:connector-curvature="0" /><g
       id="g3688"><g
         id="g3690"
         clip-path="url(#clipPath3692)"><text
           transform="matrix(1,0,0,-1,337.08,207.19)"
           style="font-variant:normal;font-weight:300;font-size:18px;font-family:Calibri;-inkscape-font-specification:Calibri-Light;writing-mode:lr-tb;fill:#ffffff;fill-opacity:1;fill-rule:nonzero;stroke:none"
           id="text3696"><tspan
             x="0 8.1540003 17.514 21.492001 30.474001 37.188 41.598 50.130001 59.490002 68.849998 78.480003 87.839996 94.536003 100.296 109.674 123.912 139.12199 148.01401 154.98 161.946 170.478 178.758 187.64999 198.79201 207.27 216.63 225.99001 229.968 238.86"
             y="0"
             sodipodi:role="line"
             id="tspan3698">Shiny.addCustomMessageHandler</tspan></text>
</g></g><g
       id="g3700"><g
         id="g3702"
         clip-path="url(#clipPath3704)"><text
           transform="matrix(1,0,0,-1,582.29,207.19)"
           style="font-variant:normal;font-weight:300;font-size:18px;font-family:Calibri;-inkscape-font-specification:Calibri-Light;writing-mode:lr-tb;fill:#ffffff;fill-opacity:1;fill-rule:nonzero;stroke:none"
           id="text3708"><tspan
             x="0 5.382 12.222 21.582001 30.096001 39.456001 48.816002 52.793999 61.686001 67.896004 77.022003 83.862 88.272003"
             y="0"
             sodipodi:role="line"
             id="tspan3710">(&quot;handler1&quot;, </tspan></text>
</g></g><g
       id="g3712"><g
         id="g3714"
         clip-path="url(#clipPath3716)"><text
           transform="matrix(1,0,0,-1,674.93,207.19)"
           style="font-variant:normal;font-weight:300;font-size:18px;font-family:Calibri;-inkscape-font-specification:Calibri-Light;writing-mode:lr-tb;fill:#ffffff;fill-opacity:1;fill-rule:nonzero;stroke:none"
           id="text3720"><tspan
             x="0 9.3599997 18.738001 28.799999 41.273998 50.166 57.132 66.510002 80.748001 89.639999 98.370003 107.73 111.708 121.068"
             y="0"
             sodipodi:role="line"
             id="tspan3722">doAwesomeThing</tspan></text>
</g></g><g
       id="g3724"><g
         id="g3726"
         clip-path="url(#clipPath3728)"><text
           transform="matrix(1,0,0,-1,808.63,207.19)"
           style="font-variant:normal;font-weight:300;font-size:18px;font-family:Calibri;-inkscape-font-specification:Calibri-Light;writing-mode:lr-tb;fill:#ffffff;fill-opacity:1;fill-rule:nonzero;stroke:none"
           id="text3732"><tspan
             x="0 5.4000001"
             y="0"
             sodipodi:role="line"
             id="tspan3734">);</tspan></text>
</g></g><path
       d="m 332.4,50.4 499.2,0 0,72.72 -499.2,0 0,-72.72 z"
       style="fill:#00b0f0;fill-opacity:1;fill-rule:evenodd;stroke:none"
       id="path3736"
       inkscape:connector-curvature="0" /><g
       id="g3738"><g
         id="g3740"
         clip-path="url(#clipPath3742)"><text
           transform="matrix(1,0,0,-1,339.67,102.58)"
           style="font-variant:normal;font-weight:300;font-size:18px;font-family:Calibri;-inkscape-font-specification:Calibri-Light;writing-mode:lr-tb;fill:#ffffff;fill-opacity:1;fill-rule:nonzero;stroke:none"
           id="text3746"><tspan
             x="0 5.382 14.742 24.101999 31.752001 37.674 41.652 51.029999"
             y="0"
             sodipodi:role="line"
             id="tspan3748">function</tspan></text>
</g></g><g
       id="g3750"><g
         id="g3752"
         clip-path="url(#clipPath3754)"><text
           transform="matrix(1,0,0,-1,404.14,102.58)"
           style="font-variant:normal;font-weight:300;font-size:18px;font-family:Calibri;-inkscape-font-specification:Calibri-Light;writing-mode:lr-tb;fill:#ffffff;fill-opacity:1;fill-rule:nonzero;stroke:none"
           id="text3758"><tspan
             x="0 9.3599997 18.738001 28.799999 41.273998 50.166 57.132 66.510002 80.748001 89.639999 98.370003 107.73 111.708 121.068"
             y="0"
             sodipodi:role="line"
             id="tspan3760">doAwesomeThing</tspan></text>
</g></g><g
       id="g3762"><g
         id="g3764"
         clip-path="url(#clipPath3766)"><text
           transform="matrix(1,0,0,-1,533.62,102.58)"
           style="font-variant:normal;font-weight:300;font-size:18px;font-family:Calibri;-inkscape-font-specification:Calibri-Light;writing-mode:lr-tb;fill:#ffffff;fill-opacity:1;fill-rule:nonzero;stroke:none"
           id="text3770"><tspan
             x="0 5.382 19.656 28.548 35.514 42.48 50.958 59.256001 68.148003 77.274002 82.655998"
             y="0"
             sodipodi:role="line"
             id="tspan3772">(message1){</tspan></text>
</g></g><g
       id="g3774"><g
         id="g3776"
         clip-path="url(#clipPath3778)"><text
           transform="matrix(1,0,0,-1,347.95,80.976)"
           style="font-variant:normal;font-weight:300;font-size:18px;font-family:Calibri;-inkscape-font-specification:Calibri-Light;writing-mode:lr-tb;fill:#ffffff;fill-opacity:1;fill-rule:nonzero;stroke:none"
           id="text3782"><tspan
             x="0 8.4779997 12.456 21.348 27.558001 33.48 38.862 53.136002 62.028 68.994003 75.959999 84.438004 92.736 101.628 110.754 116.136"
             y="0"
             sodipodi:role="line"
             id="tspan3784">alert(message1);</tspan></text>
</g></g><g
       id="g3786"><g
         id="g3788"
         clip-path="url(#clipPath3790)"><text
           transform="matrix(1,0,0,-1,339.67,59.376)"
           style="font-variant:normal;font-weight:300;font-size:18px;font-family:Calibri;-inkscape-font-specification:Calibri-Light;writing-mode:lr-tb;fill:#ffffff;fill-opacity:1;fill-rule:nonzero;stroke:none"
           id="text3794"><tspan
             x="0"
             y="0"
             id="tspan3796">}</tspan></text>
</g></g><g
       id="g3798"><g
         id="g3800"
         clip-path="url(#clipPath3802)"><text
           transform="matrix(1,0,0,-1,901.3,386.45)"
           style="font-variant:normal;font-weight:normal;font-size:18px;font-family:Calibri;-inkscape-font-specification:Calibri;writing-mode:lr-tb;fill:#000000;fill-opacity:1;fill-rule:nonzero;stroke:none"
           id="text3806"><tspan
             x="0"
             y="0"
             id="tspan3808">R</tspan></text>
</g></g><g
       id="g3810"><g
         id="g3812"
         clip-path="url(#clipPath3814)"><text
           transform="matrix(1,0,0,-1,869.76,138.94)"
           style="font-variant:normal;font-weight:normal;font-size:18px;font-family:Calibri;-inkscape-font-specification:Calibri;writing-mode:lr-tb;fill:#000000;fill-opacity:1;fill-rule:nonzero;stroke:none"
           id="text3818"><tspan
             x="0 5.7420001 14.166 22.086 30.708 38.970001 46.584 52.812 56.897999 66.258003"
             y="0"
             sodipodi:role="line"
             id="tspan3820">JavaScript</tspan></text>
</g></g><g
       id="g3822"><g
         id="g3824"
         clip-path="url(#clipPath3826)"><text
           transform="matrix(1,0,0,-1,143.98,493.25)"
           style="font-variant:normal;font-weight:normal;font-size:18.02400017px;font-family:Calibri;-inkscape-font-specification:Calibri;writing-mode:lr-tb;fill:#000000;fill-opacity:1;fill-rule:nonzero;stroke:none"
           id="text3830"><tspan
             x="0 9.4625998 13.60812 18.150167"
             y="0"
             sodipodi:role="line"
             id="tspan3832">ui.r</tspan></text>
</g></g><g
       id="g3834"><g
         id="g3836"
         clip-path="url(#clipPath3838)"><text
           transform="matrix(1,0,0,-1,553.15,493.25)"
           style="font-variant:normal;font-weight:normal;font-size:18.02400017px;font-family:Calibri;-inkscape-font-specification:Calibri;writing-mode:lr-tb;fill:#000000;fill-opacity:1;fill-rule:nonzero;stroke:none"
           id="text3842"><tspan
             x="0 7.0473838 16.059383 22.403831 30.442535 39.418488 43.888439 48.430489"
             y="0"
             sodipodi:role="line"
             id="tspan3844">server.r</tspan></text>
</g></g><g
       id="g3846"><path
         d="m 11.64,281.04 699.82,0"
         style="fill:none;stroke:#e7e6e6;stroke-width:0.47999999;stroke-linecap:butt;stroke-linejoin:miter;stroke-miterlimit:10;stroke-dasharray:1.92, 1.44;stroke-dashoffset:0;stroke-opacity:1"
         id="path3848"
         inkscape:connector-curvature="0" /></g><path
       d="m 142.2,335.94 c 0,7.85 6.34,14.22 14.16,14.22 7.82,0 14.16,-6.37 14.16,-14.22 0,-7.85 -6.34,-14.22 -14.16,-14.22 -7.82,0 -14.16,6.37 -14.16,14.22 z"
       style="fill:#000000;fill-opacity:1;fill-rule:evenodd;stroke:none"
       id="path3850"
       inkscape:connector-curvature="0" /><path
       d="m 142.2,335.94 c 0,7.85 6.34,14.22 14.16,14.22 7.82,0 14.16,-6.37 14.16,-14.22 0,-7.85 -6.34,-14.22 -14.16,-14.22 -7.82,0 -14.16,6.37 -14.16,14.22 z"
       style="fill:none;stroke:#000000;stroke-width:0.95999998;stroke-linecap:butt;stroke-linejoin:miter;stroke-miterlimit:10;stroke-dasharray:none;stroke-opacity:1"
       id="path3852"
       inkscape:connector-curvature="0" /><g
       id="g3854"><g
         id="g3856"
         clip-path="url(#clipPath3858)"><text
           transform="matrix(1,0,0,-1,151.78,329.88)"
           style="font-variant:normal;font-weight:normal;font-size:18px;font-family:Calibri;-inkscape-font-specification:Calibri;writing-mode:lr-tb;fill:#ffffff;fill-opacity:1;fill-rule:nonzero;stroke:none"
           id="text3862"><tspan
             x="0"
             y="0"
             id="tspan3864">1</tspan></text>
</g></g><path
       d="m 566.52,179.4 c 0,7.82 6.34,14.16 14.16,14.16 7.82,0 14.16,-6.34 14.16,-14.16 0,-7.82 -6.34,-14.16 -14.16,-14.16 -7.82,0 -14.16,6.34 -14.16,14.16 z"
       style="fill:#000000;fill-opacity:1;fill-rule:evenodd;stroke:none"
       id="path3866"
       inkscape:connector-curvature="0" /><path
       d="m 566.52,179.4 c 0,7.82 6.34,14.16 14.16,14.16 7.82,0 14.16,-6.34 14.16,-14.16 0,-7.82 -6.34,-14.16 -14.16,-14.16 -7.82,0 -14.16,6.34 -14.16,14.16 z"
       style="fill:none;stroke:#000000;stroke-width:0.95999998;stroke-linecap:butt;stroke-linejoin:miter;stroke-miterlimit:10;stroke-dasharray:none;stroke-opacity:1"
       id="path3868"
       inkscape:connector-curvature="0" /><g
       id="g3870"><g
         id="g3872"
         clip-path="url(#clipPath3874)"><text
           transform="matrix(1,0,0,-1,576.22,173.33)"
           style="font-variant:normal;font-weight:normal;font-size:18px;font-family:Calibri;-inkscape-font-specification:Calibri;writing-mode:lr-tb;fill:#ffffff;fill-opacity:1;fill-rule:nonzero;stroke:none"
           id="text3878"><tspan
             x="0"
             y="0"
             id="tspan3880">3</tspan></text>
</g></g><path
       d="m 566.52,335.94 c 0,7.85 6.34,14.22 14.16,14.22 7.82,0 14.16,-6.37 14.16,-14.22 0,-7.85 -6.34,-14.22 -14.16,-14.22 -7.82,0 -14.16,6.37 -14.16,14.22 z"
       style="fill:#000000;fill-opacity:1;fill-rule:evenodd;stroke:none"
       id="path3882"
       inkscape:connector-curvature="0" /><path
       d="m 566.52,335.94 c 0,7.85 6.34,14.22 14.16,14.22 7.82,0 14.16,-6.37 14.16,-14.22 0,-7.85 -6.34,-14.22 -14.16,-14.22 -7.82,0 -14.16,6.37 -14.16,14.22 z"
       style="fill:none;stroke:#000000;stroke-width:0.95999998;stroke-linecap:butt;stroke-linejoin:miter;stroke-miterlimit:10;stroke-dasharray:none;stroke-opacity:1"
       id="path3884"
       inkscape:connector-curvature="0" /><g
       id="g3886"><g
         id="g3888"
         clip-path="url(#clipPath3890)"><text
           transform="matrix(1,0,0,-1,576.22,329.88)"
           style="font-variant:normal;font-weight:normal;font-size:18px;font-family:Calibri;-inkscape-font-specification:Calibri;writing-mode:lr-tb;fill:#ffffff;fill-opacity:1;fill-rule:nonzero;stroke:none"
           id="text3894"><tspan
             x="0"
             y="0"
             id="tspan3896">2</tspan></text>
</g></g><path
       d="m 567.84,75.72 c 0,7.82 6.34,14.16 14.16,14.16 7.82,0 14.16,-6.34 14.16,-14.16 0,-7.82 -6.34,-14.16 -14.16,-14.16 -7.82,0 -14.16,6.34 -14.16,14.16 z"
       style="fill:#000000;fill-opacity:1;fill-rule:evenodd;stroke:none"
       id="path3898"
       inkscape:connector-curvature="0" /><path
       d="m 567.84,75.72 c 0,7.82 6.34,14.16 14.16,14.16 7.82,0 14.16,-6.34 14.16,-14.16 0,-7.82 -6.34,-14.16 -14.16,-14.16 -7.82,0 -14.16,6.34 -14.16,14.16 z"
       style="fill:none;stroke:#000000;stroke-width:0.95999998;stroke-linecap:butt;stroke-linejoin:miter;stroke-miterlimit:10;stroke-dasharray:none;stroke-opacity:1"
       id="path3900"
       inkscape:connector-curvature="0" /><g
       id="g3902"><g
         id="g3904"
         clip-path="url(#clipPath3906)"><text
           transform="matrix(1,0,0,-1,577.51,69.648)"
           style="font-variant:normal;font-weight:normal;font-size:18px;font-family:Calibri;-inkscape-font-specification:Calibri;writing-mode:lr-tb;fill:#ffffff;fill-opacity:1;fill-rule:nonzero;stroke:none"
           id="text3910"><tspan
             x="0"
             y="0"
             id="tspan3912">4</tspan></text>
</g></g></g></svg>