<?xml version="1.0" encoding="UTF-8" standalone="no"?>
<!-- Created with Inkscape (http://www.inkscape.org/) -->

<svg
   xmlns:dc="http://purl.org/dc/elements/1.1/"
   xmlns:cc="http://creativecommons.org/ns#"
   xmlns:rdf="http://www.w3.org/1999/02/22-rdf-syntax-ns#"
   xmlns:svg="http://www.w3.org/2000/svg"
   xmlns="http://www.w3.org/2000/svg"
   xmlns:sodipodi="http://sodipodi.sourceforge.net/DTD/sodipodi-0.dtd"
   xmlns:inkscape="http://www.inkscape.org/namespaces/inkscape"
   id="svg2985"
   version="1.1"
   inkscape:version="0.48.4 r9939"
   width="30.237495"
   height="30.728001"
   xml:space="preserve"
   sodipodi:docname="friss_small.svg"><metadata
     id="metadata2991"><rdf:RDF><cc:Work
         rdf:about=""><dc:format>image/svg+xml</dc:format><dc:type
           rdf:resource="http://purl.org/dc/dcmitype/StillImage" /><dc:title></dc:title></cc:Work></rdf:RDF></metadata><defs
     id="defs2989"><clipPath
       clipPathUnits="userSpaceOnUse"
       id="clipPath3021"><path
         d="m 17.008,17.008 561.26,0 0,807.873 -561.26,0 0,-807.873 z"
         id="path3023"
         inkscape:connector-curvature="0" /></clipPath><clipPath
       clipPathUnits="userSpaceOnUse"
       id="clipPath3101"><path
         d="m 0,0 595.276,0 0,841.89 L 0,841.89 0,0 z"
         id="path3103"
         inkscape:connector-curvature="0" /></clipPath></defs><sodipodi:namedview
     pagecolor="#ffffff"
     bordercolor="#666666"
     borderopacity="1"
     objecttolerance="10"
     gridtolerance="10"
     guidetolerance="10"
     inkscape:pageopacity="0"
     inkscape:pageshadow="2"
     inkscape:window-width="1920"
     inkscape:window-height="1018"
     id="namedview2987"
     showgrid="false"
     inkscape:zoom="0.86947222"
     inkscape:cx="-241.17883"
     inkscape:cy="-327.60549"
     inkscape:window-x="-8"
     inkscape:window-y="-8"
     inkscape:window-maximized="1"
     inkscape:current-layer="g2993"
     fit-margin-top="0"
     fit-margin-left="0"
     fit-margin-right="0"
     fit-margin-bottom="0" /><g
     id="g2993"
     inkscape:groupmode="layer"
     inkscape:label="FRISS"
     transform="matrix(1.25,0,0,-1.25,-100.27145,1037.0681)"><g
       id="g3017"><g
         id="g3019"
         clip-path="url(#clipPath3021)"><g
           id="g3025"
           transform="translate(380.7955,-138.8896)"><path
             d="M 0,0 -137.46,47.79 -249.912,155.015 -112.448,107.226 0,0 z"
             style="fill:#8d0f50;fill-opacity:1;fill-rule:nonzero;stroke:none"
             id="path3027"
             inkscape:connector-curvature="0" /></g></g></g><g
       id="g3049"
       transform="matrix(0.34898699,0,0,0.34898699,86.078749,815.27685)"><path
         d="M 0,0 -14.944,17.194 -4.414,31.729 10.529,14.535 0,0 z"
         style="fill:#53801b;fill-opacity:1;fill-rule:nonzero;stroke:none"
         id="path3051"
         inkscape:connector-curvature="0" /></g><g
       id="g3053"
       transform="matrix(0.34898699,0,0,0.34898699,89.753233,820.34941)"><path
         d="M 0,0 -14.943,17.194 1.716,26.663 16.659,9.468 0,0 z"
         style="fill:#86cd2e;fill-opacity:1;fill-rule:nonzero;stroke:none"
         id="path3055"
         inkscape:connector-curvature="0" /></g><g
       id="g3057"
       transform="matrix(0.34898699,0,0,0.34898699,94.895522,823.32327)"><path
         d="M 0,0 -10.529,-14.535 -27.188,-24.003 -16.659,-9.468 0,0 z"
         style="fill:#507a19;fill-opacity:1;fill-rule:nonzero;stroke:none"
         id="path3059"
         inkscape:connector-curvature="0" /></g><g
       id="g3061"
       transform="matrix(0.34898699,0,0,0.34898699,94.91866,814.37664)"><path
         d="M 0,0 -14.943,17.194 -4.414,31.729 10.529,14.535 0,0 z"
         style="fill:#971058;fill-opacity:1;fill-rule:nonzero;stroke:none"
         id="path3063"
         inkscape:connector-curvature="0" /></g><g
       id="g3065"
       transform="matrix(0.34898699,0,0,0.34898699,98.593283,819.4492)"><path
         d="M 0,0 -14.944,17.194 1.716,26.663 16.659,9.468 0,0 z"
         style="fill:#ee1a97;fill-opacity:1;fill-rule:nonzero;stroke:none"
         id="path3067"
         inkscape:connector-curvature="0" /></g><g
       id="g3069"
       transform="matrix(0.34898699,0,0,0.34898699,104.40716,822.75355)"><path
         d="m 0,0 -10.529,-14.535 -16.66,-9.468 10.53,14.535 L 0,0 z"
         style="fill:#8d0f50;fill-opacity:1;fill-rule:nonzero;stroke:none"
         id="path3071"
         inkscape:connector-curvature="0" /></g><g
       id="g3073"
       transform="matrix(0.34898699,0,0,0.34898699,85.432425,805.99795)"><path
         d="M 0,0 -14.944,17.194 -4.414,31.729 10.529,14.535 0,0 z"
         style="fill:#30799a;fill-opacity:1;fill-rule:nonzero;stroke:none"
         id="path3075"
         inkscape:connector-curvature="0" /></g><g
       id="g3077"
       transform="matrix(0.34898699,0,0,0.34898699,89.106944,811.07044)"><path
         d="M 0,0 -14.943,17.194 1.716,26.663 16.659,9.468 0,0 z"
         style="fill:#4cc4f2;fill-opacity:1;fill-rule:nonzero;stroke:none"
         id="path3079"
         inkscape:connector-curvature="0" /></g><g
       id="g3081"
       transform="matrix(0.34898699,0,0,0.34898699,94.920858,814.37482)"><path
         d="M 0,0 -10.529,-14.535 -27.188,-24.003 -16.659,-9.468 0,0 z"
         style="fill:#286481;fill-opacity:1;fill-rule:nonzero;stroke:none"
         id="path3083"
         inkscape:connector-curvature="0" /></g><g
       id="g3085"
       transform="matrix(0.34898699,0,0,0.34898699,94.307409,805.07205)"><path
         d="M 0,0 -14.944,17.194 -4.414,31.729 10.529,14.535 0,0 z"
         style="fill:#9a530a;fill-opacity:1;fill-rule:nonzero;stroke:none"
         id="path3087"
         inkscape:connector-curvature="0" /></g><g
       id="g3089"
       transform="matrix(0.34898699,0,0,0.34898699,97.982032,810.14457)"><path
         d="M 0,0 -14.944,17.194 1.716,26.663 16.659,9.468 0,0 z"
         style="fill:#f68712;fill-opacity:1;fill-rule:nonzero;stroke:none"
         id="path3091"
         inkscape:connector-curvature="0" /></g><g
       id="g3093"
       transform="matrix(0.34898699,0,0,0.34898699,103.79584,813.44893)"><path
         d="M 0,0 -10.529,-14.535 -27.188,-24.003 -16.659,-9.468 0,0 z"
         style="fill:#824508;fill-opacity:1;fill-rule:nonzero;stroke:none"
         id="path3095"
         inkscape:connector-curvature="0" /></g><flowRoot
       xml:space="preserve"
       id="flowRoot3154"
       style="font-size:40px;font-style:normal;font-weight:normal;line-height:125%;letter-spacing:0px;word-spacing:0px;fill:#000000;fill-opacity:1;stroke:none;font-family:Sans"><flowRegion
         id="flowRegion3156"><rect
           id="rect3158"
           width="146.06563"
           height="113.86217"
           x="134.56439"
           y="335.83591" /></flowRegion><flowPara
         id="flowPara3160" /></flowRoot><flowRoot
       xml:space="preserve"
       id="flowRoot3170"
       style="font-size:40px;font-style:normal;font-weight:normal;line-height:125%;letter-spacing:0px;word-spacing:0px;fill:#000000;fill-opacity:1;stroke:none;font-family:Sans"
       transform="matrix(0.8,0,0,-0.8,0,841.89)"><flowRegion
         id="flowRegion3172"><rect
           id="rect3174"
           width="806.23621"
           height="134.56439"
           x="-67.857254"
           y="-1.150123" /></flowRegion><flowPara
         id="flowPara3176" /></flowRoot></g></svg>